<svg id="SvgjsSvg1060" width="288" height="288" xmlns="http://www.w3.org/2000/svg" version="1.1" xmlns:xlink="http://www.w3.org/1999/xlink" xmlns:svgjs="http://svgjs.com/svgjs"><defs id="SvgjsDefs1061"></defs><g id="SvgjsG1062"><svg xmlns="http://www.w3.org/2000/svg" enable-background="new 0 0 144 144" viewBox="0 0 144 144" width="288" height="288"><path fill="none" stroke="#3d6cb4" stroke-linecap="round" stroke-linejoin="round" stroke-miterlimit="10" d="M28.719 108.842c-.96-1.149-1.558-2.624-1.558-4.238V52.661c0-3.656 2.964-6.62 6.62-6.62h65.258M128.897 71.856v32.748c0 1.621-.567 3.087-1.534 4.238M118.394 49.448" class="colorStroke3D6CB4 svgStroke"></path><path fill="none" stroke="#3d6cb4" stroke-linecap="round" stroke-linejoin="round" stroke-miterlimit="10" d="M125.014 77.441v20.795c0 3.656-2.964 6.62-6.62 6.62H37.665c-3.656 0-6.62-2.964-6.62-6.62V56.068c0-3.656 2.964-6.62 6.62-6.62h61.847M136.502 108.842H19.557c-1.655 0-2.997 1.342-2.997 2.997v.216c0 1.655 1.342 2.997 2.997 2.997h116.944c1.655 0 2.997-1.342 2.997-2.997v-.216C139.499 110.184 138.157 108.842 136.502 108.842z" class="colorStroke3D6CB4 svgStroke"></path><path fill="#6666ff" d="M97.106,111.948H58.953c-0.824,0-1.499-0.674-1.499-1.499v-0.108   c0-0.824,0.674-1.499,1.499-1.499h38.153c0.824,0,1.499,0.674,1.499,1.499v0.108C98.604,111.273,97.93,111.948,97.106,111.948z" opacity=".3" class="color528AC8 svgShape"></path><path fill="none" stroke="#3d6cb4" stroke-linecap="round" stroke-linejoin="round" stroke-miterlimit="10" d="M97.106,111.948   H58.953c-0.824,0-1.499-0.674-1.499-1.499v-0.108c0-0.824,0.674-1.499,1.499-1.499h38.153c0.824,0,1.499,0.674,1.499,1.499v0.108   C98.604,111.273,97.93,111.948,97.106,111.948z" class="colorStroke3D6CB4 svgStroke"></path><line x1="41.36" x2="76.36" y1="59.555" y2="59.555" fill="none" stroke="#3d6cb4" stroke-linecap="round" stroke-linejoin="round" stroke-miterlimit="10" class="colorStroke3D6CB4 svgStroke"></line><line x1="41.36" x2="81.36" y1="69.555" y2="69.555" fill="none" stroke="#3d6cb4" stroke-linecap="round" stroke-linejoin="round" stroke-miterlimit="10" class="colorStroke3D6CB4 svgStroke"></line><line x1="7.499" x2="7.499" y1="43.656" y2="53.368" fill="none" stroke="#3d6cb4" stroke-linecap="round" stroke-linejoin="round" stroke-miterlimit="10" class="colorStroke3D6CB4 svgStroke"></line><line x1="12.355" x2="2.643" y1="48.512" y2="48.512" fill="none" stroke="#3d6cb4" stroke-linecap="round" stroke-linejoin="round" stroke-miterlimit="10" class="colorStroke3D6CB4 svgStroke"></line><line x1="15.463" x2="15.463" y1="65.289" y2="71.104" fill="none" stroke="#3d6cb4" stroke-linecap="round" stroke-linejoin="round" stroke-miterlimit="10" class="colorStroke3D6CB4 svgStroke"></line><line x1="18.37" x2="12.556" y1="68.196" y2="68.196" fill="none" stroke="#3d6cb4" stroke-linecap="round" stroke-linejoin="round" stroke-miterlimit="10" class="colorStroke3D6CB4 svgStroke"></line><path fill="none" stroke="#3d6cb4" stroke-linecap="round" stroke-linejoin="round" stroke-miterlimit="10" d="M137.801,54.345    l3.231-0.877l-2.068-7.615l-3.716,1.009c-1.045-1.897-2.246-3.372-3.606-4.597l1.883-3.535l-6.948-4.051l-1.909,3.317    c-2.111-0.67-4.46-0.99-6.617-0.904l-0.897-3.304l-7.107,1.93l0.897,3.304c-2.919,1.293-4.14,2.538-5.622,4.183l-3.532-1.884    l-4.049,6.947l3.417,2.275c-0.554,1.745-0.885,3.636-0.827,5.801l-4.011,1.089l2.068,7.615l3.526-0.958    c1.08,2.432,2.598,4.32,4.522,6.053l-1.969,3.221l6.905,3.894l2.248-3.493c2.111,0.67,3.784,1.089,6.956,0.728l1.05,3.866    l7.107-1.93l-1.05-3.866c1.904-1.018,3.78-2.44,5.262-4.086l3.352,1.933l3.959-6.923l-3.292-1.636    C137.749,59.384,138.1,56.99,137.801,54.345z M121.896,67.306c-6.312,1.714-12.819-2.013-14.533-8.325    c-1.714-6.312,2.013-12.819,8.325-14.534c6.312-1.714,12.819,2.013,14.534,8.325C131.936,59.085,128.208,65.592,121.896,67.306z" class="colorStroke3D6CB4 svgStroke"></path><path fill="#6666ff" d="M137.801,54.345l3.231-0.877l-2.068-7.615l-3.716,1.009    c-1.045-1.897-2.246-3.372-3.606-4.597l1.883-3.535l-6.948-4.051l-1.909,3.317c-2.111-0.67-4.46-0.99-6.617-0.904l-0.897-3.304    l-7.107,1.93l0.897,3.304c-2.919,1.293-4.14,2.538-5.622,4.183l-3.532-1.884l-4.049,6.947l3.417,2.275    c-0.554,1.745-0.885,3.636-0.827,5.801l-4.011,1.089l2.068,7.615l3.526-0.958c1.08,2.432,2.598,4.32,4.522,6.053l-1.969,3.221    l6.905,3.894l2.248-3.493c2.111,0.67,3.784,1.089,6.956,0.728l1.05,3.866l7.107-1.93l-1.05-3.866    c1.904-1.018,3.78-2.44,5.262-4.086l3.352,1.933l3.959-6.923l-3.292-1.636C137.749,59.384,138.1,56.99,137.801,54.345z     M121.896,67.306c-6.312,1.714-12.819-2.013-14.533-8.325c-1.714-6.312,2.013-12.819,8.325-14.534    c6.312-1.714,12.819,2.013,14.534,8.325C131.936,59.085,128.208,65.592,121.896,67.306z" opacity=".3" class="color528AC8 svgShape"></path><line x1="41.36" x2="95.36" y1="78.555" y2="78.555" fill="none" stroke="#3d6cb4" stroke-linecap="round" stroke-linejoin="round" stroke-miterlimit="10" class="colorStroke3D6CB4 svgStroke"></line><path fill="#6666ff" d="M112.973,96.86H43.086c-1.329,0-2.417-1.087-2.417-2.417v-5.182   c0-1.329,1.088-2.417,2.417-2.417h69.887c1.329,0,2.417,1.087,2.417,2.417v5.182C115.39,95.773,114.302,96.86,112.973,96.86z" opacity=".3" class="color528AC8 svgShape"></path></svg></g></svg>