<svg width="50" height="50" viewBox="0 0 50 50" fill="none" xmlns="http://www.w3.org/2000/svg">
<circle cx="25" cy="25" r="25" fill="#6666FF"/>
<path d="M30.0009 24H22.4109L25.7109 20.71C25.8992 20.5217 26.005 20.2663 26.005 20C26.005 19.7337 25.8992 19.4783 25.7109 19.29C25.5226 19.1017 25.2672 18.9959 25.0009 18.9959C24.7346 18.9959 24.4792 19.1017 24.2909 19.29L19.2909 24.29C19.1998 24.3851 19.1285 24.4973 19.0809 24.62C18.9809 24.8635 18.9809 25.1365 19.0809 25.38C19.1285 25.5028 19.1998 25.6149 19.2909 25.71L24.2909 30.71C24.3838 30.8037 24.4944 30.8781 24.6163 30.9289C24.7382 30.9797 24.8689 31.0058 25.0009 31.0058C25.1329 31.0058 25.2636 30.9797 25.3854 30.9289C25.5073 30.8781 25.6179 30.8037 25.7109 30.71C25.8046 30.617 25.879 30.5064 25.9298 30.3846C25.9805 30.2627 26.0067 30.132 26.0067 30C26.0067 29.868 25.9805 29.7373 25.9298 29.6154C25.879 29.4936 25.8046 29.383 25.7109 29.29L22.4109 26H30.0009C30.2661 26 30.5204 25.8946 30.708 25.7071C30.8955 25.5196 31.0009 25.2652 31.0009 25C31.0009 24.7348 30.8955 24.4804 30.708 24.2929C30.5204 24.1054 30.2661 24 30.0009 24Z" fill="white"/>
</svg>
