<svg width="18" height="12" viewBox="0 0 18 12" fill="none" xmlns="http://www.w3.org/2000/svg">
<path d="M17.9249 5.49912C16.1075 2.28487 12.6887 0.290527 9 0.290527C5.31129 0.290527 1.89248 2.28487 0.0751101 5.49912C0.0255704 5.58559 0 5.67891 0 5.77325C0 5.8676 0.0255704 5.96092 0.0751101 6.04739C1.89248 9.26164 5.31129 11.256 9 11.256C12.6887 11.256 16.1075 9.26164 17.9249 6.04739C17.9744 5.96092 18 5.8676 18 5.77325C18 5.67891 17.9744 5.58559 17.9249 5.49912ZM9 9.8853C6.14799 9.8853 3.44893 8.31587 1.89248 5.77325C3.44893 3.23064 6.14799 1.66121 9 1.66121C11.852 1.66121 14.5511 3.23064 16.1075 5.77325C14.5511 8.31587 11.852 9.8853 9 9.8853ZM9 3.03189C8.28824 3.03189 7.59245 3.19267 7.00064 3.49389C6.40883 3.79512 5.94757 4.22326 5.67519 4.72418C5.40281 5.2251 5.33154 5.7763 5.4704 6.30807C5.60926 6.83984 5.95201 7.3283 6.4553 7.71169C6.9586 8.09508 7.59983 8.35617 8.29792 8.46194C8.99601 8.56772 9.7196 8.51343 10.3772 8.30594C11.0348 8.09846 11.5968 7.74709 11.9922 7.29627C12.3877 6.84546 12.5987 6.31544 12.5987 5.77325C12.5987 5.0462 12.2196 4.34892 11.5447 3.83482C10.8698 3.32071 9.95445 3.03189 9 3.03189ZM9 7.14394C8.64412 7.14394 8.29623 7.06355 8.00032 6.91293C7.70442 6.76232 7.47379 6.54825 7.3376 6.29779C7.20141 6.04733 7.16577 5.77173 7.2352 5.50585C7.30463 5.23996 7.476 4.99573 7.72765 4.80404C7.9793 4.61234 8.29992 4.4818 8.64896 4.42891C8.998 4.37602 9.3598 4.40317 9.68859 4.50691C10.0174 4.61065 10.2984 4.78634 10.4961 5.01174C10.6938 5.23715 10.7994 5.50216 10.7994 5.77325C10.7994 6.13678 10.6098 6.48542 10.2723 6.74247C9.9349 6.99953 9.47722 7.14394 9 7.14394Z" fill="#2E3136"/>
</svg>
