<svg id="SvgjsSvg1112" width="288" height="288" xmlns="http://www.w3.org/2000/svg" version="1.1" xmlns:xlink="http://www.w3.org/1999/xlink" xmlns:svgjs="http://svgjs.com/svgjs"><defs id="SvgjsDefs1113"></defs><g id="SvgjsG1114" transform="matrix(1,0,0,1,0,0)"><svg xmlns="http://www.w3.org/2000/svg" enable-background="new 0 0 144 144" viewBox="0 0 144 144" width="288" height="288"><path fill="none" stroke="#3d6cb4" stroke-linecap="round" stroke-linejoin="round" stroke-miterlimit="10" d="M123.326,56.625   v36.242c0,6.578-5.382,11.961-11.961,11.961H35.978c-6.578,0-11.961-5.382-11.961-11.961V34.093" class="colorStroke3D6CB4 svgStroke"></path><line x1="123.326" x2="123.326" y1="34.093" y2="45.872" fill="none" stroke="#3d6cb4" stroke-linecap="round" stroke-linejoin="round" stroke-miterlimit="10" class="colorStroke3D6CB4 svgStroke"></line><path fill="#6666ff" d="M126.57,23.055H86.821c-0.051-1-1.575-4-3.44-4H63.432c-1.865,0-3.389,3-3.44,4H20.243   c-2.521,0-4.883,1.002-4.883,3.452v1.239c0,2.45,2.362,5.309,4.883,5.309H126.57c2.521,0,3.79-2.86,3.79-5.309v-1.239   C130.36,24.057,129.091,23.055,126.57,23.055z M81.383,27.055H65.759c-1.269,0-2.307-0.731-2.307-2c0-1.269,1.038-2,2.307-2h15.623   c1.269,0,2.307,0.731,2.307,2C83.69,26.324,82.652,27.055,81.383,27.055z" opacity=".3" class="color528AC8 svgShape"></path><path fill="none" stroke="#3d6cb4" stroke-linecap="round" stroke-linejoin="round" stroke-miterlimit="10" d="M126.57,22.555   H86.821c-0.051-1-1.575-4-3.44-4H63.432c-1.865,0-3.389,3-3.44,4H20.243c-2.521,0-4.383,1.639-4.383,4.16v1.275   c0,2.521,1.862,5.565,4.383,5.565H126.57c2.521,0,4.29-3.044,4.29-5.565v-1.275C130.86,24.194,129.091,22.555,126.57,22.555z" class="colorStroke3D6CB4 svgStroke"></path><path fill="none" stroke="#3d6cb4" stroke-linecap="round" stroke-linejoin="round" stroke-miterlimit="10" d="M81.627,26.98   H65.514c-1.134,0-2.062-0.928-2.062-2.062v-0.489c0-1.134,0.928-2.062,2.062-2.062h16.113c1.134,0,2.063,0.928,2.063,2.062v0.489   C83.69,26.051,82.762,26.98,81.627,26.98z" class="colorStroke3D6CB4 svgStroke"></path><line x1="7.541" x2="7.541" y1="45.974" y2="56.46" fill="none" stroke="#3d6cb4" stroke-linecap="round" stroke-linejoin="round" stroke-miterlimit="10" class="colorStroke3D6CB4 svgStroke"></line><line x1="2.298" x2="12.784" y1="51.217" y2="51.217" fill="none" stroke="#3d6cb4" stroke-linecap="round" stroke-linejoin="round" stroke-miterlimit="10" class="colorStroke3D6CB4 svgStroke"></line><line x1="45.15" x2="45.15" y1="60.341" y2="66.619" fill="none" stroke="#3d6cb4" stroke-linecap="round" stroke-linejoin="round" stroke-miterlimit="10" class="colorStroke3D6CB4 svgStroke"></line><line x1="42.011" x2="48.289" y1="63.48" y2="63.48" fill="none" stroke="#3d6cb4" stroke-linecap="round" stroke-linejoin="round" stroke-miterlimit="10" class="colorStroke3D6CB4 svgStroke"></line><line x1="100.283" x2="100.283" y1="48.078" y2="54.356" fill="none" stroke="#3d6cb4" stroke-linecap="round" stroke-linejoin="round" stroke-miterlimit="10" class="colorStroke3D6CB4 svgStroke"></line><line x1="103.422" x2="97.144" y1="51.217" y2="51.217" fill="none" stroke="#3d6cb4" stroke-linecap="round" stroke-linejoin="round" stroke-miterlimit="10" class="colorStroke3D6CB4 svgStroke"></line><line x1="136.376" x2="136.376" y1="68.161" y2="78.647" fill="none" stroke="#3d6cb4" stroke-linecap="round" stroke-linejoin="round" stroke-miterlimit="10" class="colorStroke3D6CB4 svgStroke"></line><line x1="141.619" x2="131.133" y1="73.404" y2="73.404" fill="none" stroke="#3d6cb4" stroke-linecap="round" stroke-linejoin="round" stroke-miterlimit="10" class="colorStroke3D6CB4 svgStroke"></line><line x1="73.683" x2="73.672" y1="104.828" y2="119.272" fill="none" stroke="#3d6cb4" stroke-linecap="round" stroke-linejoin="round" stroke-miterlimit="10" class="colorStroke3D6CB4 svgStroke"></line><circle cx="73.672" cy="122.998" r="3.726" fill="none" stroke="#3d6cb4" stroke-linecap="round" stroke-linejoin="round" stroke-miterlimit="10" class="colorStroke3D6CB4 svgStroke"></circle><g fill="#000000" class="color000 svgShape"><path fill="none" stroke="#3d6cb4" stroke-linecap="round" stroke-linejoin="round" stroke-miterlimit="10" d="M124.255,51.248" class="colorStroke3D6CB4 svgStroke"></path><line x1="97.318" x2="120.244" y1="76.079" y2="54.946" fill="none" stroke="#3d6cb4" stroke-linecap="round" stroke-linejoin="round" stroke-miterlimit="10" class="colorStroke3D6CB4 svgStroke"></line><line x1="78.069" x2="89.376" y1="63.392" y2="75.658" fill="none" stroke="#3d6cb4" stroke-linecap="round" stroke-linejoin="round" stroke-miterlimit="10" class="colorStroke3D6CB4 svgStroke"></line><line x1="47.134" x2="70.197" y1="84.033" y2="62.773" fill="none" stroke="#3d6cb4" stroke-linecap="round" stroke-linejoin="round" stroke-miterlimit="10" class="colorStroke3D6CB4 svgStroke"></line><circle cx="124.255" cy="51.248" r="5.455" fill="#6666ff" opacity=".3" transform="rotate(-6.76 124.285 51.258)" class="color528AC8 svgShape"></circle><circle cx="124.255" cy="51.248" r="5.455" fill="none" stroke="#3d6cb4" stroke-linecap="round" stroke-linejoin="round" stroke-miterlimit="10" transform="rotate(-6.76 124.285 51.258)" class="colorStroke3D6CB4 svgStroke"></circle><circle cx="93.149" cy="79.599" r="5.455" fill="#6666ff" opacity=".3" transform="rotate(-6.76 93.171 79.616)" class="color528AC8 svgShape"></circle><circle cx="93.149" cy="79.599" r="5.455" fill="none" stroke="#3d6cb4" stroke-linecap="round" stroke-linejoin="round" stroke-miterlimit="10" transform="rotate(-6.76 93.171 79.616)" class="colorStroke3D6CB4 svgStroke"></circle><g fill="#000000" class="color000 svgShape"><circle cx="74.428" cy="59.328" r="5.455" fill="#6666ff" opacity=".3" transform="rotate(-6.76 74.446 59.341)" class="color528AC8 svgShape"></circle><circle cx="74.428" cy="59.328" r="5.455" fill="none" stroke="#3d6cb4" stroke-linecap="round" stroke-linejoin="round" stroke-miterlimit="10" transform="rotate(-6.76 74.446 59.341)" class="colorStroke3D6CB4 svgStroke"></circle></g><g fill="#000000" class="color000 svgShape"><circle cx="43.125" cy="87.729" r="5.455" fill="#6666ff" opacity=".3" transform="rotate(-6.76 43.135 87.749)" class="color528AC8 svgShape"></circle><circle cx="43.125" cy="87.729" r="5.455" fill="none" stroke="#3d6cb4" stroke-linecap="round" stroke-linejoin="round" stroke-miterlimit="10" transform="rotate(-6.76 43.135 87.749)" class="colorStroke3D6CB4 svgStroke"></circle></g></g><path fill="none" stroke="#3d6cb4" stroke-linecap="round" stroke-linejoin="round" stroke-miterlimit="10" d="M120.169,47.151" class="colorStroke3D6CB4 svgStroke"></path><rect width="99.308" height="6.619" x="24.018" y="33.316" fill="#6666ff" opacity=".3" class="color528AC8 svgShape"></rect></svg></g></svg>