<svg id="SvgjsSvg1148" width="288" height="288" xmlns="http://www.w3.org/2000/svg" version="1.1" xmlns:xlink="http://www.w3.org/1999/xlink" xmlns:svgjs="http://svgjs.com/svgjs"><defs id="SvgjsDefs1149"></defs><g id="SvgjsG1150" transform="matrix(1,0,0,1,0,0)"><svg xmlns="http://www.w3.org/2000/svg" enable-background="new 0 0 144 144" viewBox="0 0 144 144" width="288" height="288"><path fill="none" stroke="#3d6cb4" stroke-linecap="round" stroke-linejoin="round" stroke-miterlimit="10" d="M77.732,111.245   c-4.11,1.372-8.654,2.146-13.226,2.146c-22.804,0-41.29-18.486-41.29-41.29s18.486-41.29,41.29-41.29   c21.724,0,39.529,16.977,41.167,38.281" class="colorStroke3D6CB4 svgStroke"></path><path fill="#6666ff" d="M64.412 113.388c.032 0 .062.002.094.002v-.062C64.475 113.348 64.444 113.37 64.412 113.388zM64.506 30.873v-.062c-.032 0-.062.002-.094.002C64.444 30.832 64.475 30.854 64.506 30.873zM41.122 72.101c0-17.81 9.789-33.405 23.283-41.287-22.757.055-41.188 18.518-41.188 41.287 0 22.77 18.431 41.232 41.188 41.287C50.907 105.507 41.122 89.914 41.122 72.101z" opacity=".3" class="color528AC8 svgShape"></path><path fill="none" stroke="#3d6cb4" stroke-linecap="round" stroke-linejoin="round" stroke-miterlimit="10" d="M64.409,113.391    c-13.499-7.881-23.287-23.475-23.287-41.29c0-17.812,9.791-33.408,23.287-41.29V113.391z" class="colorStroke3D6CB4 svgStroke"></path><path fill="none" stroke="#3d6cb4" stroke-linecap="round" stroke-linejoin="round" stroke-miterlimit="10" d="M87.615 67.171c-1.695-15.648-11.02-29.243-23.206-36.36v82.58c3.165-1.848 6.286-4.224 8.981-6.849M63.153 30.811" class="colorStroke3D6CB4 svgStroke"></path><path fill="none" stroke="#3d6cb4" stroke-linecap="round" stroke-linejoin="round" stroke-miterlimit="10" d="M94.532 43.694C91.39 49.429 79.14 53.706 64.506 53.706c-14.588 0-26.808-4.251-29.996-9.96M34.795 100.768c3.58-5.47 15.526-9.49 29.711-9.49 1.357 0 2.694.037 4.005.108" class="colorStroke3D6CB4 svgStroke"></path><line x1="77.507" x2="23.231" y1="72.493" y2="72.481" fill="none" stroke="#3d6cb4" stroke-linecap="round" stroke-linejoin="round" stroke-miterlimit="10" class="colorStroke3D6CB4 svgStroke"></line><path fill="none" stroke="#3d6cb4" stroke-linecap="round" stroke-linejoin="round" stroke-miterlimit="10" d="M139.908,121.11    c-0.589,0.914-1.504,1.5-2.499,1.716c-0.995,0.215-2.07,0.061-2.984-0.528l-21.145-13.616c-0.026-0.017-0.051-0.033-0.08-0.06    c-3.47,3.932-8.172,6.834-13.687,8.028c-13.739,2.976-27.286-5.748-30.262-19.487C66.277,83.423,75,69.876,88.74,66.9    c13.739-2.976,27.286,5.748,30.262,19.487c1.176,5.43,0.527,10.823-1.542,15.549c0.049,0.023,0.088,0.047,0.126,0.072    l21.132,13.608C140.559,116.803,141.094,119.269,139.908,121.11z" class="colorStroke3D6CB4 svgStroke"></path><circle cx="94.127" cy="91.775" r="19.495" fill="#6666ff" opacity=".3" transform="rotate(-12.222 94.11 91.762)" class="color528AC8 svgShape"></circle><circle cx="94.127" cy="91.775" r="19.495" fill="none" stroke="#3d6cb4" stroke-linecap="round" stroke-linejoin="round" stroke-miterlimit="10" transform="rotate(-12.222 94.11 91.762)" class="colorStroke3D6CB4 svgStroke"></circle><g fill="#000000" class="color000 svgShape"><line x1="9.436" x2="9.436" y1="90.27" y2="101.276" fill="none" stroke="#3d6cb4" stroke-linecap="round" stroke-linejoin="round" stroke-miterlimit="10" class="colorStroke3D6CB4 svgStroke"></line><line x1="14.939" x2="3.933" y1="95.773" y2="95.773" fill="none" stroke="#3d6cb4" stroke-linecap="round" stroke-linejoin="round" stroke-miterlimit="10" class="colorStroke3D6CB4 svgStroke"></line></g><g fill="#000000" class="color000 svgShape"><line x1="31.549" x2="31.549" y1="113.508" y2="120.097" fill="none" stroke="#3d6cb4" stroke-linecap="round" stroke-linejoin="round" stroke-miterlimit="10" class="colorStroke3D6CB4 svgStroke"></line><line x1="34.843" x2="28.254" y1="116.803" y2="116.803" fill="none" stroke="#3d6cb4" stroke-linecap="round" stroke-linejoin="round" stroke-miterlimit="10" class="colorStroke3D6CB4 svgStroke"></line></g><g fill="#000000" class="color000 svgShape"><line x1="23.526" x2="23.526" y1="22.171" y2="33.177" fill="none" stroke="#3d6cb4" stroke-linecap="round" stroke-linejoin="round" stroke-miterlimit="10" class="colorStroke3D6CB4 svgStroke"></line><line x1="29.029" x2="18.023" y1="27.674" y2="27.674" fill="none" stroke="#3d6cb4" stroke-linecap="round" stroke-linejoin="round" stroke-miterlimit="10" class="colorStroke3D6CB4 svgStroke"></line></g></svg></g></svg>