<svg id="SvgjsSvg1170" width="288" height="288" xmlns="http://www.w3.org/2000/svg" version="1.1" xmlns:xlink="http://www.w3.org/1999/xlink" xmlns:svgjs="http://svgjs.com/svgjs"><defs id="SvgjsDefs1171"></defs><g id="SvgjsG1172" transform="matrix(1,0,0,1,0,0)"><svg xmlns="http://www.w3.org/2000/svg" enable-background="new 0 0 144 144" viewBox="0 0 144 144" width="288" height="288"><path fill="none" stroke="#3d6cb4" stroke-linecap="round" stroke-linejoin="round" stroke-miterlimit="10" d="M121.886 128.937l-58.071.021c-4.333 0-7.878-3.545-7.878-7.878l-.006-2.076M55.936 78.536V19.233c0-4.333 3.545-7.878 7.878-7.878h69.011c4.333 0 7.878 3.545 7.878 7.878V121.08c0 4.333-3.545 7.878-7.878 7.878h-3.352" class="colorStroke3D6CB4 svgStroke"></path><path fill="#6666ff" d="M55.936,24.723v-5.49c0-4.333,3.545-7.878,7.878-7.878h69.011   c4.333,0,7.878,3.545,7.878,7.878v5.49H55.936z" opacity=".3" class="color528AC8 svgShape"></path><path fill="none" stroke="#3d6cb4" stroke-linecap="round" stroke-linejoin="round" stroke-miterlimit="10" d="M55.936,24.723   v-5.49c0-4.333,3.545-7.878,7.878-7.878h69.011c4.333,0,7.878,3.545,7.878,7.878v5.49H55.936z" class="colorStroke3D6CB4 svgStroke"></path><line x1="65.36" x2="127.36" y1="39.555" y2="39.555" fill="none" stroke="#3d6cb4" stroke-linecap="round" stroke-linejoin="round" stroke-miterlimit="10" class="colorStroke3D6CB4 svgStroke"></line><line x1="65.36" x2="108.36" y1="65.555" y2="65.555" fill="none" stroke="#3d6cb4" stroke-linecap="round" stroke-linejoin="round" stroke-miterlimit="10" class="colorStroke3D6CB4 svgStroke"></line><line x1="65.36" x2="114.36" y1="53.555" y2="53.555" fill="none" stroke="#3d6cb4" stroke-linecap="round" stroke-linejoin="round" stroke-miterlimit="10" class="colorStroke3D6CB4 svgStroke"></line><polygon fill="none" stroke="#3d6cb4" stroke-linecap="round" stroke-linejoin="round" stroke-miterlimit="10" points="129.476 133.715 121.887 133.715 121.887 73.01 125.682 65.589 129.476 73.01" class="colorStroke3D6CB4 svgStroke"></polygon><line x1="121.887" x2="129.476" y1="74.349" y2="74.349" fill="none" stroke="#3d6cb4" stroke-linecap="round" stroke-linejoin="round" stroke-miterlimit="10" class="colorStroke3D6CB4 svgStroke"></line><line x1="121.887" x2="129.476" y1="125.234" y2="125.234" fill="none" stroke="#3d6cb4" stroke-linecap="round" stroke-linejoin="round" stroke-miterlimit="10" class="colorStroke3D6CB4 svgStroke"></line><line x1="121.887" x2="129.476" y1="119.878" y2="119.878" fill="none" stroke="#3d6cb4" stroke-linecap="round" stroke-linejoin="round" stroke-miterlimit="10" class="colorStroke3D6CB4 svgStroke"></line><rect width="7.588" height="5.356" x="121.887" y="119.878" fill="#6666ff" opacity=".3" class="color528AC8 svgShape"></rect><line x1="121.887" x2="129.476" y1="74.349" y2="74.349" fill="none" stroke="#3d6cb4" stroke-linecap="round" stroke-linejoin="round" stroke-miterlimit="10" class="colorStroke3D6CB4 svgStroke"></line><polygon fill="none" stroke="#3d6cb4" stroke-linecap="round" stroke-linejoin="round" stroke-miterlimit="10" points="129.476 133.715 121.887 133.715 121.887 73.01 125.682 65.589 129.476 73.01" class="colorStroke3D6CB4 svgStroke"></polygon><line x1="121.887" x2="129.476" y1="125.234" y2="125.234" fill="none" stroke="#3d6cb4" stroke-linecap="round" stroke-linejoin="round" stroke-miterlimit="10" class="colorStroke3D6CB4 svgStroke"></line><line x1="121.887" x2="129.476" y1="119.878" y2="119.878" fill="none" stroke="#3d6cb4" stroke-linecap="round" stroke-linejoin="round" stroke-miterlimit="10" class="colorStroke3D6CB4 svgStroke"></line><g fill="#000000" class="color000 svgShape"><polygon fill="#6666ff" points="129.476 74.349 121.887 74.349 121.887 73.01 125.682 65.589 129.476 73.01" opacity=".3" class="color528AC8 svgShape"></polygon><line x1="121.887" x2="129.476" y1="74.349" y2="74.349" fill="none" stroke="#3d6cb4" stroke-linecap="round" stroke-linejoin="round" stroke-miterlimit="10" class="colorStroke3D6CB4 svgStroke"></line><line x1="121.887" x2="129.476" y1="125.234" y2="125.234" fill="none" stroke="#3d6cb4" stroke-linecap="round" stroke-linejoin="round" stroke-miterlimit="10" class="colorStroke3D6CB4 svgStroke"></line><line x1="121.887" x2="129.476" y1="119.878" y2="119.878" fill="none" stroke="#3d6cb4" stroke-linecap="round" stroke-linejoin="round" stroke-miterlimit="10" class="colorStroke3D6CB4 svgStroke"></line></g><g fill="#000000" class="color000 svgShape"><line x1="39.458" x2="39.458" y1="54.136" y2="61.561" fill="none" stroke="#3d6cb4" stroke-linecap="round" stroke-linejoin="round" stroke-miterlimit="10" class="colorStroke3D6CB4 svgStroke"></line><line x1="43.17" x2="35.746" y1="57.849" y2="57.849" fill="none" stroke="#3d6cb4" stroke-linecap="round" stroke-linejoin="round" stroke-miterlimit="10" class="colorStroke3D6CB4 svgStroke"></line></g><g fill="#000000" class="color000 svgShape"><line x1="27.709" x2="27.709" y1="23.785" y2="36.187" fill="none" stroke="#3d6cb4" stroke-linecap="round" stroke-linejoin="round" stroke-miterlimit="10" class="colorStroke3D6CB4 svgStroke"></line><line x1="33.91" x2="21.508" y1="29.986" y2="29.986" fill="none" stroke="#3d6cb4" stroke-linecap="round" stroke-linejoin="round" stroke-miterlimit="10" class="colorStroke3D6CB4 svgStroke"></line></g><g fill="#000000" class="color000 svgShape"><rect width="73.645" height="40.462" x="4.546" y="78.541" fill="none" stroke="#3d6cb4" stroke-linecap="round" stroke-linejoin="round" stroke-miterlimit="10" class="colorStroke3D6CB4 svgStroke"></rect><rect width="19.053" height="22.8" x="12.253" y="87.33" fill="#6666ff" opacity=".3" class="color528AC8 svgShape"></rect><rect width="19.053" height="22.8" x="12.253" y="87.33" fill="none" stroke="#3d6cb4" stroke-linecap="round" stroke-linejoin="round" stroke-miterlimit="10" class="colorStroke3D6CB4 svgStroke"></rect><g fill="#000000" class="color000 svgShape"><line x1="40.36" x2="71.36" y1="88.555" y2="88.555" fill="none" stroke="#3d6cb4" stroke-linecap="round" stroke-linejoin="round" stroke-miterlimit="10" class="colorStroke3D6CB4 svgStroke"></line><line x1="40.36" x2="61.36" y1="96.555" y2="96.555" fill="none" stroke="#3d6cb4" stroke-linecap="round" stroke-linejoin="round" stroke-miterlimit="10" class="colorStroke3D6CB4 svgStroke"></line><g fill="#000000" class="color000 svgShape"><circle cx="42.769" cy="106.771" r="2.257" fill="none" stroke="#3d6cb4" stroke-linecap="round" stroke-linejoin="round" stroke-miterlimit="10" class="colorStroke3D6CB4 svgStroke"></circle><circle cx="53.045" cy="106.771" r="2.257" fill="none" stroke="#3d6cb4" stroke-linecap="round" stroke-linejoin="round" stroke-miterlimit="10" class="colorStroke3D6CB4 svgStroke"></circle><circle cx="63.321" cy="106.771" r="2.257" fill="none" stroke="#3d6cb4" stroke-linecap="round" stroke-linejoin="round" stroke-miterlimit="10" class="colorStroke3D6CB4 svgStroke"></circle></g></g></g></svg></g></svg>