<svg id="SvgjsSvg1078" width="288" height="288" xmlns="http://www.w3.org/2000/svg" version="1.1" xmlns:xlink="http://www.w3.org/1999/xlink" xmlns:svgjs="http://svgjs.com/svgjs"><defs id="SvgjsDefs1079"></defs><g id="SvgjsG1080" transform="matrix(1,0,0,1,0,0)"><svg xmlns="http://www.w3.org/2000/svg" enable-background="new 0 0 144 144" viewBox="0 0 144 144" width="288" height="288"><rect width="20.998" height="5.003" x="46.961" y="104.861" fill="#6666ff" opacity=".3" class="color528AC8 svgShape"></rect><path fill="none" stroke="#3d6cb4" stroke-linecap="round" stroke-linejoin="round" stroke-miterlimit="10" d="M91.732,104.989   H15.683c-6.623,0-12.042-5.419-12.042-12.042v-58.82c0-6.623,5.419-12.042,12.042-12.042h83.771   c6.623,0,12.042,5.419,12.042,12.042v22.536" class="colorStroke3D6CB4 svgStroke"></path><path fill="none" stroke="#3d6cb4" stroke-linecap="round" stroke-linejoin="round" stroke-miterlimit="10" d="M91.732,87.74   H15.762c-3.558,0-6.469-2.911-6.469-6.469V34.467c0-3.558,2.911-6.47,6.47-6.47h83.613c3.558,0,6.469,2.911,6.469,6.469v21.675" class="colorStroke3D6CB4 svgStroke"></path><path fill="#6666ff" d="M9.292,36.519v-2.052c0-3.558,2.911-6.47,6.47-6.47h83.613c3.558,0,6.469,2.911,6.469,6.469   v2.053H9.292z" opacity=".3" class="color528AC8 svgShape"></path><path fill="none" stroke="#3d6cb4" stroke-linecap="round" stroke-linejoin="round" stroke-miterlimit="10" d="M9.292,36.519   v-2.052c0-3.558,2.911-6.47,6.47-6.47h83.613c3.558,0,6.469,2.911,6.469,6.469v2.053H9.292z" class="colorStroke3D6CB4 svgStroke"></path><circle cx="57.569" cy="96.613" r="3.605" fill="#6666ff" opacity=".3" class="color528AC8 svgShape"></circle><circle cx="57.569" cy="96.613" r="3.605" fill="none" stroke="#3d6cb4" stroke-linecap="round" stroke-linejoin="round" stroke-miterlimit="10" class="colorStroke3D6CB4 svgStroke"></circle><path fill="none" stroke="#3d6cb4" stroke-linecap="round" stroke-linejoin="round" stroke-miterlimit="10" d="M68.111,105.247   c0,0-1.904,12.308,7.468,12.308c-11.421,0-18.743,0-18.743,0h1.171c0,0-7.028,0-18.45,0c9.371,0,7.321-12.18,7.321-12.18" class="colorStroke3D6CB4 svgStroke"></path><rect width="35.955" height="13.434" x="16.538" y="42.927" fill="none" stroke="#3d6cb4" stroke-linecap="round" stroke-linejoin="round" stroke-miterlimit="10" class="colorStroke3D6CB4 svgStroke"></rect><line x1="58.36" x2="88.36" y1="44.555" y2="44.555" fill="none" stroke="#3d6cb4" stroke-linecap="round" stroke-linejoin="round" stroke-miterlimit="10" class="colorStroke3D6CB4 svgStroke"></line><line x1="58.36" x2="93.36" y1="50.555" y2="50.555" fill="none" stroke="#3d6cb4" stroke-linecap="round" stroke-linejoin="round" stroke-miterlimit="10" class="colorStroke3D6CB4 svgStroke"></line><line x1="58.36" x2="88.36" y1="54.555" y2="54.555" fill="none" stroke="#3d6cb4" stroke-linecap="round" stroke-linejoin="round" stroke-miterlimit="10" class="colorStroke3D6CB4 svgStroke"></line><rect width="17.978" height="17.978" x="16.538" y="63.77" fill="#6666ff" opacity=".3" class="color528AC8 svgShape"></rect><rect width="17.978" height="17.978" x="16.538" y="63.77" fill="none" stroke="#3d6cb4" stroke-linecap="round" stroke-linejoin="round" stroke-miterlimit="10" class="colorStroke3D6CB4 svgStroke"></rect><rect width="17.978" height="17.978" x="41.035" y="63.77" fill="none" stroke="#3d6cb4" stroke-linecap="round" stroke-linejoin="round" stroke-miterlimit="10" class="colorStroke3D6CB4 svgStroke"></rect><rect width="17.978" height="17.978" x="65.532" y="63.77" fill="none" stroke="#3d6cb4" stroke-linecap="round" stroke-linejoin="round" stroke-miterlimit="10" class="colorStroke3D6CB4 svgStroke"></rect><path fill="none" stroke="#3d6cb4" stroke-linecap="round" stroke-linejoin="round" stroke-miterlimit="10" d="M134.727,124.88   H96.596c-2.652,0-4.822-2.17-4.822-4.822V61.48c0-2.652,2.17-4.822,4.822-4.822h38.131c2.652,0,4.822,2.17,4.822,4.822v58.578   C139.549,122.71,137.379,124.88,134.727,124.88z" class="colorStroke3D6CB4 svgStroke"></path><path fill="none" stroke="#3d6cb4" stroke-linecap="round" stroke-linejoin="round" stroke-miterlimit="10" d="M133.102,113.904   h-34.88c-1.717,0-3.11-1.392-3.11-3.11V63.66c0-1.717,1.392-3.11,3.11-3.11h34.88c1.717,0,3.11,1.392,3.11,3.11v47.134   C136.211,112.512,134.819,113.904,133.102,113.904z" class="colorStroke3D6CB4 svgStroke"></path><circle cx="117.456" cy="119.246" r="2.206" fill="#6666ff" opacity=".3" class="color528AC8 svgShape"></circle><circle cx="117.456" cy="119.246" r="2.206" fill="none" stroke="#3d6cb4" stroke-linecap="round" stroke-linejoin="round" stroke-miterlimit="10" class="colorStroke3D6CB4 svgStroke"></circle><rect width="30.596" height="25.649" x="100.96" y="65.646" fill="#6666ff" opacity=".3" class="color528AC8 svgShape"></rect><rect width="31.238" height="25.649" x="100.318" y="65.646" fill="none" stroke="#3d6cb4" stroke-linecap="round" stroke-linejoin="round" stroke-miterlimit="10" class="colorStroke3D6CB4 svgStroke"></rect><line x1="101.36" x2="125.36" y1="98.555" y2="98.555" fill="none" stroke="#3d6cb4" stroke-linecap="round" stroke-linejoin="round" stroke-miterlimit="10" class="colorStroke3D6CB4 svgStroke"></line><line x1="101.36" x2="121.36" y1="102.555" y2="102.555" fill="none" stroke="#3d6cb4" stroke-linecap="round" stroke-linejoin="round" stroke-miterlimit="10" class="colorStroke3D6CB4 svgStroke"></line><g fill="#000000" class="color000 svgShape"><line x1="125.538" x2="125.538" y1="40.51" y2="46.741" fill="none" stroke="#3d6cb4" stroke-linecap="round" stroke-linejoin="round" stroke-miterlimit="10" class="colorStroke3D6CB4 svgStroke"></line><line x1="128.654" x2="122.423" y1="43.625" y2="43.625" fill="none" stroke="#3d6cb4" stroke-linecap="round" stroke-linejoin="round" stroke-miterlimit="10" class="colorStroke3D6CB4 svgStroke"></line></g><g fill="#000000" class="color000 svgShape"><line x1="135.663" x2="135.663" y1="18.369" y2="28.777" fill="none" stroke="#3d6cb4" stroke-linecap="round" stroke-linejoin="round" stroke-miterlimit="10" class="colorStroke3D6CB4 svgStroke"></line><line x1="140.867" x2="130.46" y1="23.573" y2="23.573" fill="none" stroke="#3d6cb4" stroke-linecap="round" stroke-linejoin="round" stroke-miterlimit="10" class="colorStroke3D6CB4 svgStroke"></line></g></svg></g></svg>