<svg width="27" height="24" viewBox="0 0 27 24" fill="none" xmlns="http://www.w3.org/2000/svg">
<path d="M24.2293 3.37056C22.816 2.009 20.9424 1.17799 18.9471 1.02762C16.9518 0.877258 14.9664 1.41746 13.3493 2.55065C11.6529 1.33825 9.54132 0.788491 7.43989 1.01208C5.33846 1.23567 3.40325 2.21599 2.02396 3.75564C0.644669 5.29529 -0.0762446 7.27989 0.00639388 9.3098C0.0890324 11.3397 0.969084 13.2642 2.46933 14.6956L10.7493 22.6641C11.4427 23.3197 12.3765 23.6872 13.3493 23.6872C14.3222 23.6872 15.256 23.3197 15.9493 22.6641L24.2293 14.6956C25.7861 13.1906 26.6599 11.1549 26.6599 9.03307C26.6599 6.9112 25.7861 4.87552 24.2293 3.37056ZM22.3493 12.9276L14.0693 20.8833C13.9751 20.9748 13.863 21.0473 13.7394 21.0968C13.6158 21.1464 13.4832 21.1719 13.3493 21.1719C13.2154 21.1719 13.0829 21.1464 12.9593 21.0968C12.8357 21.0473 12.7236 20.9748 12.6293 20.8833L4.34933 12.8892C3.30367 11.8622 2.71814 10.4826 2.71814 9.04588C2.71814 7.60916 3.30367 6.22955 4.34933 5.20254C5.41487 4.19173 6.85196 3.62494 8.34933 3.62494C9.8467 3.62494 11.2838 4.19173 12.3493 5.20254C12.4733 5.32262 12.6208 5.41793 12.7832 5.48297C12.9457 5.54801 13.12 5.58149 13.296 5.58149C13.472 5.58149 13.6463 5.54801 13.8088 5.48297C13.9713 5.41793 14.1187 5.32262 14.2427 5.20254C15.3082 4.19173 16.7453 3.62494 18.2427 3.62494C19.74 3.62494 21.1771 4.19173 22.2427 5.20254C23.3027 6.21609 23.9075 7.58822 23.9274 9.02498C23.9473 10.4617 23.3809 11.8489 22.3493 12.8892V12.9276Z" fill="#6666FF"/>
</svg>
