<svg width="200" height="54" viewBox="0 0 200 54" fill="none" xmlns="http://www.w3.org/2000/svg">
<path d="M2.99512 29V10.5156H9.46973C11.7126 10.5156 13.4137 10.9473 14.5732 11.8105C15.7327 12.6654 16.3125 13.9222 16.3125 15.5811C16.3125 16.4867 16.0798 17.2865 15.6143 17.9805C15.1488 18.666 14.5013 19.1696 13.6719 19.4912C14.6198 19.7282 15.3646 20.2064 15.9062 20.9258C16.4564 21.6452 16.7314 22.5254 16.7314 23.5664C16.7314 25.3438 16.1644 26.6895 15.0303 27.6035C13.8962 28.5176 12.2796 28.9831 10.1807 29H2.99512ZM6.80371 20.9512V25.9404H10.0664C10.9635 25.9404 11.6618 25.7288 12.1611 25.3057C12.6689 24.874 12.9229 24.2816 12.9229 23.5283C12.9229 21.8356 12.0469 20.9766 10.2949 20.9512H6.80371ZM6.80371 18.2598H9.62207C11.5433 18.2259 12.5039 17.46 12.5039 15.9619C12.5039 15.124 12.2585 14.5231 11.7676 14.1592C11.2852 13.7868 10.5192 13.6006 9.46973 13.6006H6.80371V18.2598ZM30.0361 25.1914H23.3584L22.0889 29H18.0391L24.9199 10.5156H28.4492L35.3682 29H31.3184L30.0361 25.1914ZM24.3867 22.1064H29.0078L26.6846 15.1875L24.3867 22.1064ZM52.1387 29H48.3301V21.0781H40.9033V29H37.0947V10.5156H40.9033V18.0059H48.3301V10.5156H52.1387V29ZM62.3203 22.2334H59.2861V29H55.4775V10.5156H62.3457C64.5293 10.5156 66.2135 11.0023 67.3984 11.9756C68.5833 12.9489 69.1758 14.3242 69.1758 16.1016C69.1758 17.3626 68.9007 18.4163 68.3506 19.2627C67.8089 20.1006 66.9837 20.7692 65.875 21.2686L69.874 28.8223V29H65.7861L62.3203 22.2334ZM59.2861 19.1484H62.3584C63.3148 19.1484 64.0553 18.9072 64.5801 18.4248C65.1048 17.9339 65.3672 17.2611 65.3672 16.4062C65.3672 15.5345 65.1175 14.849 64.6182 14.3496C64.1273 13.8503 63.3698 13.6006 62.3457 13.6006H59.2861V19.1484ZM88.9932 25.1914H82.3154L81.0459 29H76.9961L83.877 10.5156H87.4062L94.3252 29H90.2754L88.9932 25.1914ZM83.3438 22.1064H87.9648L85.6416 15.1875L83.3438 22.1064ZM110.283 22.8428C110.139 24.8317 109.403 26.3975 108.074 27.54C106.754 28.6826 105.01 29.2539 102.844 29.2539C100.474 29.2539 98.6077 28.4583 97.2451 26.8672C95.891 25.2676 95.2139 23.0755 95.2139 20.291V19.1611C95.2139 17.3838 95.527 15.818 96.1533 14.4639C96.7796 13.1097 97.6725 12.0729 98.832 11.3535C100 10.6257 101.354 10.2617 102.895 10.2617C105.027 10.2617 106.745 10.833 108.049 11.9756C109.352 13.1182 110.105 14.722 110.309 16.7871H106.5C106.407 15.5938 106.073 14.7305 105.497 14.1973C104.93 13.6556 104.062 13.3848 102.895 13.3848C101.625 13.3848 100.673 13.8418 100.038 14.7559C99.4118 15.6615 99.0902 17.0706 99.0732 18.9834V20.3799C99.0732 22.3773 99.3737 23.8372 99.9746 24.7598C100.584 25.6823 101.54 26.1436 102.844 26.1436C104.02 26.1436 104.896 25.877 105.472 25.3438C106.056 24.8021 106.39 23.9684 106.475 22.8428H110.283ZM123.22 25.1914H116.542L115.272 29H111.223L118.104 10.5156H121.633L128.552 29H124.502L123.22 25.1914ZM117.57 22.1064H122.191L119.868 15.1875L117.57 22.1064ZM130.278 29V10.5156H135.966C137.591 10.5156 139.042 10.8838 140.32 11.6201C141.607 12.348 142.61 13.389 143.329 14.7432C144.049 16.0889 144.408 17.6208 144.408 19.3389V20.1895C144.408 21.9076 144.053 23.4352 143.342 24.7725C142.639 26.1097 141.645 27.1465 140.358 27.8828C139.072 28.6191 137.62 28.9915 136.004 29H130.278ZM134.087 13.6006V25.9404H135.928C137.417 25.9404 138.556 25.4538 139.343 24.4805C140.13 23.5072 140.532 22.1149 140.549 20.3037V19.3262C140.549 17.4473 140.16 16.0254 139.381 15.0605C138.602 14.0872 137.464 13.6006 135.966 13.6006H134.087ZM158.31 20.9893H150.997V25.9404H159.579V29H147.188V10.5156H159.554V13.6006H150.997V18.0059H158.31V20.9893ZM166.79 10.5156L171.538 23.9219L176.261 10.5156H181.263V29H177.441V23.9473L177.822 15.2256L172.833 29H170.218L165.241 15.2383L165.622 23.9473V29H161.813V10.5156H166.79ZM190.606 18.8438L194.453 10.5156H198.617L192.549 22.2969V29H188.677V22.2969L182.608 10.5156H186.785L190.606 18.8438Z" fill="white"/>
<path d="M9.22852 42.2231H5.57227V46H3.66797V36.7578H9.68555V38.3003H5.57227V40.687H9.22852V42.2231ZM12.8149 46H10.9106V36.7578H12.8149V46ZM22.1016 46H20.1973L16.4902 39.9189V46H14.5859V36.7578H16.4902L20.2036 42.8516V36.7578H22.1016V46ZM23.7646 46V36.7578H26.6084C27.4209 36.7578 28.1466 36.9419 28.7856 37.3101C29.4289 37.674 29.9303 38.1945 30.29 38.8716C30.6497 39.5444 30.8296 40.3104 30.8296 41.1694V41.5947C30.8296 42.4538 30.6519 43.2176 30.2964 43.8862C29.9451 44.5549 29.4479 45.0732 28.8047 45.4414C28.1615 45.8096 27.4357 45.9958 26.6274 46H23.7646ZM25.6689 38.3003V44.4702H26.5894C27.3341 44.4702 27.9033 44.2269 28.2969 43.7402C28.6904 43.2536 28.8914 42.5575 28.8999 41.6519V41.1631C28.8999 40.2236 28.7052 39.5127 28.3159 39.0303C27.9266 38.5436 27.3574 38.3003 26.6084 38.3003H25.6689ZM38.6436 40.9219L40.5669 36.7578H42.6489L39.6147 42.6484V46H37.6787V42.6484L34.6445 36.7578H36.7329L38.6436 40.9219ZM50.8945 41.5884C50.8945 42.4982 50.7337 43.2959 50.4121 43.9814C50.0905 44.667 49.6292 45.196 49.0283 45.5684C48.4316 45.9408 47.7461 46.127 46.9717 46.127C46.2057 46.127 45.5223 45.9429 44.9214 45.5747C44.3205 45.2065 43.855 44.6818 43.5249 44.0005C43.1948 43.3149 43.0277 42.5278 43.0234 41.6392V41.1821C43.0234 40.2723 43.1864 39.4725 43.5122 38.7827C43.8423 38.0887 44.3057 37.5576 44.9023 37.1895C45.5033 36.8171 46.1888 36.6309 46.959 36.6309C47.7292 36.6309 48.4126 36.8171 49.0093 37.1895C49.6102 37.5576 50.0736 38.0887 50.3994 38.7827C50.7295 39.4725 50.8945 40.2702 50.8945 41.1758V41.5884ZM48.9648 41.1694C48.9648 40.2004 48.7913 39.464 48.4443 38.9604C48.0973 38.4569 47.6022 38.2051 46.959 38.2051C46.32 38.2051 45.827 38.4548 45.48 38.9541C45.133 39.4492 44.9574 40.1771 44.9531 41.1377V41.5884C44.9531 42.5321 45.1266 43.2642 45.4736 43.7847C45.8206 44.3052 46.32 44.5654 46.9717 44.5654C47.6107 44.5654 48.1016 44.3158 48.4443 43.8164C48.7871 43.3128 48.9606 42.5807 48.9648 41.6201V41.1694ZM59.2734 36.7578V42.8452C59.2734 43.8566 58.9561 44.6564 58.3213 45.2446C57.6908 45.8328 56.8275 46.127 55.7314 46.127C54.6523 46.127 53.7954 45.8413 53.1606 45.27C52.5259 44.6987 52.2021 43.9137 52.1895 42.915V36.7578H54.0938V42.8579C54.0938 43.4631 54.2376 43.9053 54.5254 44.1846C54.8174 44.4596 55.2194 44.5972 55.7314 44.5972C56.8021 44.5972 57.3459 44.0343 57.3628 42.9087V36.7578H59.2734ZM64.2563 42.6167H62.7393V46H60.835V36.7578H64.269C65.3608 36.7578 66.203 37.0011 66.7954 37.4878C67.3879 37.9744 67.6841 38.6621 67.6841 39.5508C67.6841 40.1813 67.5465 40.7082 67.2715 41.1313C67.0007 41.5503 66.5881 41.8846 66.0337 42.1343L68.0332 45.9111V46H65.9893L64.2563 42.6167ZM62.7393 41.0742H64.2754C64.7536 41.0742 65.1239 40.9536 65.3862 40.7124C65.6486 40.467 65.7798 40.1305 65.7798 39.7031C65.7798 39.2673 65.6549 38.9245 65.4053 38.6748C65.1598 38.4251 64.7811 38.3003 64.269 38.3003H62.7393V41.0742ZM75.79 43.7085L77.8848 36.7578H80.0049L76.7866 46H74.7998L71.5942 36.7578H73.708L75.79 43.7085ZM82.9058 46H81.0015V36.7578H82.9058V46ZM84.6768 46V36.7578H87.5205C88.333 36.7578 89.0588 36.9419 89.6978 37.3101C90.341 37.674 90.8424 38.1945 91.2021 38.8716C91.5618 39.5444 91.7417 40.3104 91.7417 41.1694V41.5947C91.7417 42.4538 91.564 43.2176 91.2085 43.8862C90.8573 44.5549 90.36 45.0732 89.7168 45.4414C89.0736 45.8096 88.3478 45.9958 87.5396 46H84.6768ZM86.5811 38.3003V44.4702H87.5015C88.2463 44.4702 88.8154 44.2269 89.209 43.7402C89.6025 43.2536 89.8035 42.5575 89.812 41.6519V41.1631C89.812 40.2236 89.6174 39.5127 89.228 39.0303C88.8387 38.5436 88.2695 38.3003 87.5205 38.3003H86.5811ZM98.6924 41.9946H95.0361V44.4702H99.3271V46H93.1318V36.7578H99.3145V38.3003H95.0361V40.5029H98.6924V41.9946ZM108.036 41.5884C108.036 42.4982 107.875 43.2959 107.554 43.9814C107.232 44.667 106.771 45.196 106.17 45.5684C105.573 45.9408 104.888 46.127 104.113 46.127C103.347 46.127 102.664 45.9429 102.063 45.5747C101.462 45.2065 100.997 44.6818 100.667 44.0005C100.336 43.3149 100.169 42.5278 100.165 41.6392V41.1821C100.165 40.2723 100.328 39.4725 100.654 38.7827C100.984 38.0887 101.447 37.5576 102.044 37.1895C102.645 36.8171 103.33 36.6309 104.101 36.6309C104.871 36.6309 105.554 36.8171 106.151 37.1895C106.752 37.5576 107.215 38.0887 107.541 38.7827C107.871 39.4725 108.036 40.2702 108.036 41.1758V41.5884ZM106.106 41.1694C106.106 40.2004 105.933 39.464 105.586 38.9604C105.239 38.4569 104.744 38.2051 104.101 38.2051C103.462 38.2051 102.969 38.4548 102.622 38.9541C102.275 39.4492 102.099 40.1771 102.095 41.1377V41.5884C102.095 42.5321 102.268 43.2642 102.615 43.7847C102.962 44.3052 103.462 44.5654 104.113 44.5654C104.752 44.5654 105.243 44.3158 105.586 43.8164C105.929 43.3128 106.102 42.5807 106.106 41.6201V41.1694ZM120.249 41.5884C120.249 42.4982 120.088 43.2959 119.767 43.9814C119.445 44.667 118.984 45.196 118.383 45.5684C117.786 45.9408 117.101 46.127 116.326 46.127C115.56 46.127 114.877 45.9429 114.276 45.5747C113.675 45.2065 113.209 44.6818 112.879 44.0005C112.549 43.3149 112.382 42.5278 112.378 41.6392V41.1821C112.378 40.2723 112.541 39.4725 112.867 38.7827C113.197 38.0887 113.66 37.5576 114.257 37.1895C114.858 36.8171 115.543 36.6309 116.313 36.6309C117.084 36.6309 117.767 36.8171 118.364 37.1895C118.965 37.5576 119.428 38.0887 119.754 38.7827C120.084 39.4725 120.249 40.2702 120.249 41.1758V41.5884ZM118.319 41.1694C118.319 40.2004 118.146 39.464 117.799 38.9604C117.452 38.4569 116.957 38.2051 116.313 38.2051C115.674 38.2051 115.181 38.4548 114.834 38.9541C114.487 39.4492 114.312 40.1771 114.308 41.1377V41.5884C114.308 42.5321 114.481 43.2642 114.828 43.7847C115.175 44.3052 115.674 44.5654 116.326 44.5654C116.965 44.5654 117.456 44.3158 117.799 43.8164C118.142 43.3128 118.315 42.5807 118.319 41.6201V41.1694ZM129.148 46H127.244L123.537 39.9189V46H121.633V36.7578H123.537L127.25 42.8516V36.7578H129.148V46ZM140.625 38.3003H137.794V46H135.89V38.3003H133.097V36.7578H140.625V38.3003ZM149.239 46H147.334V42.0391H143.621V46H141.717V36.7578H143.621V40.5029H147.334V36.7578H149.239V46ZM152.933 46H151.029V36.7578H152.933V46ZM159.497 43.5752C159.497 43.2155 159.37 42.9404 159.116 42.75C158.862 42.5553 158.405 42.3522 157.745 42.1406C157.084 41.9248 156.562 41.7132 156.177 41.5059C155.127 40.9388 154.603 40.175 154.603 39.2144C154.603 38.715 154.742 38.2707 155.021 37.8813C155.305 37.4878 155.709 37.181 156.234 36.9609C156.763 36.7409 157.355 36.6309 158.011 36.6309C158.671 36.6309 159.26 36.7515 159.776 36.9927C160.292 37.2297 160.692 37.5661 160.976 38.002C161.263 38.4378 161.407 38.9329 161.407 39.4873H159.503C159.503 39.0641 159.37 38.7362 159.103 38.5034C158.836 38.2664 158.462 38.1479 157.979 38.1479C157.514 38.1479 157.152 38.2474 156.894 38.4463C156.636 38.641 156.507 38.8991 156.507 39.2207C156.507 39.5212 156.657 39.7729 156.958 39.9761C157.262 40.1792 157.709 40.3696 158.297 40.5474C159.38 40.8732 160.169 41.2773 160.665 41.7598C161.16 42.2422 161.407 42.8431 161.407 43.5625C161.407 44.3623 161.105 44.9907 160.5 45.4478C159.894 45.9006 159.08 46.127 158.056 46.127C157.345 46.127 156.697 45.9979 156.113 45.7397C155.529 45.4774 155.083 45.1198 154.774 44.667C154.469 44.2142 154.317 43.6895 154.317 43.0928H156.228C156.228 44.1126 156.837 44.6226 158.056 44.6226C158.508 44.6226 158.862 44.5316 159.116 44.3496C159.37 44.1634 159.497 43.9053 159.497 43.5752ZM167.844 42.7437V46H165.939V36.7578H169.545C170.239 36.7578 170.848 36.8848 171.373 37.1387C171.902 37.3926 172.308 37.7544 172.592 38.2241C172.875 38.6896 173.017 39.2207 173.017 39.8174C173.017 40.723 172.706 41.4382 172.084 41.9629C171.466 42.4834 170.609 42.7437 169.513 42.7437H167.844ZM167.844 41.2012H169.545C170.049 41.2012 170.431 41.0827 170.694 40.8457C170.96 40.6087 171.094 40.2702 171.094 39.8301C171.094 39.3773 170.96 39.0112 170.694 38.7319C170.427 38.4526 170.059 38.3088 169.589 38.3003H167.844V41.2012ZM178.419 44.0957H175.08L174.445 46H172.42L175.861 36.7578H177.625L181.085 46H179.06L178.419 44.0957ZM175.594 42.5532H177.905L176.743 39.0938L175.594 42.5532ZM189.121 44.832C188.778 45.2425 188.294 45.562 187.667 45.7905C187.041 46.0148 186.347 46.127 185.585 46.127C184.786 46.127 184.083 45.9535 183.478 45.6064C182.877 45.2552 182.412 44.7474 182.082 44.083C181.756 43.4186 181.589 42.6379 181.58 41.7407V41.1123C181.58 40.1898 181.735 39.3921 182.043 38.7192C182.357 38.0422 182.805 37.5259 183.389 37.1704C183.977 36.8107 184.665 36.6309 185.452 36.6309C186.548 36.6309 187.405 36.8932 188.023 37.418C188.641 37.9385 189.007 38.6981 189.121 39.6968H187.268C187.183 39.1678 186.995 38.7806 186.703 38.5352C186.415 38.2897 186.017 38.167 185.509 38.167C184.862 38.167 184.369 38.4103 184.03 38.897C183.692 39.3836 183.52 40.1073 183.516 41.0679V41.6582C183.516 42.6273 183.7 43.3594 184.068 43.8545C184.437 44.3496 184.976 44.5972 185.687 44.5972C186.402 44.5972 186.912 44.4448 187.217 44.1401V42.5469H185.484V41.144H189.121V44.832ZM196.23 41.9946H192.574V44.4702H196.865V46H190.67V36.7578H196.853V38.3003H192.574V40.5029H196.23V41.9946Z" fill="white"/>
</svg>
