<svg width="880" height="725" viewBox="0 0 880 725" fill="none" xmlns="http://www.w3.org/2000/svg">
<path fill-rule="evenodd" clip-rule="evenodd" d="M489.142 723.874C570.167 727.449 651.829 723.874 723.734 692.943C796.103 661.812 888.621 592.858 879.355 524.048C865.414 420.52 746.927 397.28 723.734 341C701.268 286.484 724.032 192.011 683.43 145.516C633.56 88.4095 573.126 73.4681 489.142 68.318C404.091 63.1025 187.751 68.318 113 68.318C113 134.008 113 223.93 113 310.734C113 385.582 113 438.08 113 524.048C145.954 586.545 203.066 636.504 271.765 673C336.958 707.635 412.152 720.477 489.142 723.874Z" fill="#5222D0"/>
<path fill-rule="evenodd" clip-rule="evenodd" d="M363.881 629.917C442.266 633.356 521.266 629.917 590.827 600.159C660.838 570.209 785.464 503.871 776.5 437.671C763.013 338.071 706.937 316.645 684.5 262.5C662.766 210.053 638 48 684.5 -0.769958C617 -0.769958 523.5 -0.769958 363.881 -0.769958C281.603 -5.78759 72.3145 -0.769958 0.00017284 -0.769958C0.00017284 62.4277 0.000135655 148.939 0.000135655 232.449C0.000475391 304.458 -0.000336301 354.965 0.00017284 437.671C31.8802 497.797 87.1301 545.861 153.59 580.973C216.658 614.293 289.402 626.649 363.881 629.917Z" fill="#FF5D2E"/>
</svg>
