<svg width="130" height="130" viewBox="0 0 130 130" fill="none" xmlns="http://www.w3.org/2000/svg">
<path fill-rule="evenodd" clip-rule="evenodd" d="M46.7186 16.123C38.7646 16.123 32.0374 21.2686 29.5323 28.382C22.5468 28.7447 16.3176 33.0431 13.5997 39.5538C12.2595 42.764 11.9265 46.2021 12.4571 49.4958C5.98158 54.6871 2.87441 63.0472 4.48286 71.2207C5.52079 76.4949 8.39986 81.1008 12.4492 84.3445C11.5109 90.2314 13.4703 96.2423 17.805 100.404C21.021 103.492 25.2091 105.211 29.5402 105.435C32.3793 113.517 40.4915 118.669 49.1069 117.535C55.2602 116.725 60.3123 112.853 62.9686 107.617C65.6248 112.853 70.6769 116.725 76.8303 117.535C85.4457 118.669 93.5579 113.517 96.3969 105.435C100.728 105.211 104.916 103.492 108.132 100.404C112.467 96.2423 114.426 90.2314 113.488 84.3445C117.537 81.1008 120.416 76.4949 121.454 71.2207C123.063 63.0472 119.956 54.6871 113.48 49.4958C114.011 46.2021 113.678 42.764 112.337 39.5538C109.62 33.0431 103.39 28.7447 96.4049 28.382C93.8998 21.2686 87.1726 16.123 79.2186 16.123C72.1084 16.123 65.9895 20.2509 62.9686 26.2C59.9476 20.2509 53.8287 16.123 46.7186 16.123ZM46.7186 20.1855C54.5954 20.1855 60.9373 26.5275 60.9373 34.4043C60.9358 34.4492 60.9358 34.4942 60.9373 34.5392V99.4043C60.9374 106.556 55.6652 112.57 48.5753 113.504C42.2321 114.339 36.2707 110.852 33.7535 105.165C34.2355 105.077 34.7195 105.007 35.1976 104.879C35.7173 104.739 36.1602 104.399 36.4293 103.933C36.6984 103.467 36.7717 102.913 36.633 102.393C36.4943 101.873 36.1551 101.429 35.6896 101.159C35.2242 100.889 34.6706 100.814 34.1502 100.952C29.3403 102.241 24.2138 100.911 20.6218 97.4762C17.6857 94.6573 16.1626 90.7491 16.2895 86.7645C17.6644 87.4657 19.0946 88.0851 20.6218 88.4943C21.1421 88.6327 21.6962 88.5592 22.1623 88.2897C22.6285 88.0202 22.9688 87.5769 23.1085 87.0568C23.2482 86.5368 23.176 85.9826 22.9077 85.5158C22.6393 85.049 22.1968 84.7076 21.6771 84.5667C14.9363 82.7605 9.81348 77.2825 8.46602 70.4352C7.25877 64.3008 9.2926 58.0558 13.7187 53.7805C14.6173 55.8787 15.8678 57.8497 17.5432 59.5251C17.7303 59.7201 17.9545 59.8757 18.2026 59.9829C18.4507 60.0901 18.7176 60.1468 18.9879 60.1495C19.2581 60.1523 19.5262 60.1011 19.7764 59.9989C20.0266 59.8968 20.2539 59.7457 20.445 59.5546C20.636 59.3635 20.7871 59.1362 20.8892 58.886C20.9914 58.6358 21.0426 58.3678 21.0398 58.0975C21.0371 57.8273 20.9805 57.5603 20.8733 57.3123C20.766 57.0642 20.6104 56.84 20.4155 56.6528C16.3346 52.572 15.1215 46.4429 17.3448 41.1169C19.3181 36.3903 23.645 33.1486 28.6278 32.5C28.5609 33.1339 28.4373 33.7531 28.4373 34.4043C28.4335 34.6735 28.4833 34.9407 28.5836 35.1905C28.684 35.4403 28.833 35.6676 29.022 35.8593C29.211 36.051 29.4362 36.2032 29.6845 36.3071C29.9329 36.411 30.1994 36.4645 30.4686 36.4645C30.7378 36.4645 31.0043 36.411 31.2526 36.3071C31.5009 36.2032 31.7262 36.051 31.9152 35.8593C32.1041 35.6676 32.2532 35.4403 32.3535 35.1905C32.4539 34.9407 32.5036 34.6735 32.4998 34.4043C32.4998 26.5275 38.8417 20.1855 46.7186 20.1855ZM79.2186 20.1855C87.0954 20.1855 93.4373 26.5275 93.4373 34.4043C93.4335 34.6735 93.4833 34.9407 93.5836 35.1905C93.684 35.4403 93.833 35.6676 94.022 35.8593C94.211 36.051 94.4362 36.2032 94.6845 36.3071C94.9329 36.411 95.1994 36.4645 95.4686 36.4645C95.7378 36.4645 96.0043 36.411 96.2526 36.3071C96.5009 36.2032 96.7262 36.051 96.9152 35.8593C97.1041 35.6676 97.2532 35.4403 97.3535 35.1905C97.4539 34.9407 97.5036 34.6735 97.4998 34.4043C97.4998 33.7531 97.3763 33.1339 97.3094 32.5C102.292 33.1486 106.619 36.3903 108.592 41.1169C110.816 46.4429 109.603 52.572 105.522 56.6528C105.327 56.84 105.171 57.0642 105.064 57.3123C104.957 57.5603 104.9 57.8273 104.897 58.0975C104.895 58.3677 104.946 58.6358 105.048 58.886C105.15 59.1362 105.301 59.3635 105.492 59.5546C105.683 59.7457 105.911 59.8967 106.161 59.9989C106.411 60.101 106.679 60.1522 106.949 60.1495C107.22 60.1467 107.486 60.0901 107.735 59.9829C107.983 59.8757 108.207 59.7201 108.394 59.5251C110.069 57.8497 111.32 55.8787 112.218 53.7805C116.645 58.0558 118.678 64.3008 117.471 70.4352C116.124 77.2825 111.001 82.7605 104.26 84.5667C103.74 84.7076 103.298 85.049 103.03 85.5158C102.761 85.9826 102.689 86.5368 102.829 87.0568C102.968 87.5769 103.309 88.0202 103.775 88.2897C104.241 88.5592 104.795 88.6327 105.315 88.4943C106.843 88.0851 108.273 87.4657 109.648 86.7645C109.775 90.7491 108.251 94.6573 105.315 97.4762C101.723 100.911 96.5969 102.241 91.7869 100.952C91.2666 100.814 90.713 100.889 90.2475 101.159C89.7821 101.429 89.4428 101.873 89.3042 102.393C89.1655 102.913 89.2387 103.467 89.5078 103.933C89.7769 104.399 90.2199 104.739 90.7396 104.879C91.2177 105.007 91.7016 105.077 92.1837 105.165C89.6665 110.852 83.7051 114.339 77.3619 113.504C70.2719 112.57 64.9998 106.556 64.9998 99.4043V34.4043C64.9998 26.5275 71.3417 20.1855 79.2186 20.1855ZM46.5123 24.248C45.9736 24.2754 45.4678 24.5156 45.1062 24.9159C44.7446 25.3162 44.5568 25.8437 44.5842 26.3824C44.6115 26.9212 44.8518 27.427 45.2521 27.7885C45.6523 28.1501 46.1799 28.3379 46.7186 28.3105C50.1081 28.3105 52.8123 31.0145 52.8123 34.4043C52.8085 34.6735 52.8582 34.9407 52.9586 35.1905C53.059 35.4403 53.208 35.6676 53.397 35.8593C53.586 36.051 53.8112 36.2032 54.0595 36.3071C54.3079 36.411 54.5744 36.4645 54.8436 36.4645C55.1128 36.4645 55.3793 36.411 55.6276 36.3071C55.8759 36.2032 56.1012 36.051 56.2901 35.8593C56.4791 35.6676 56.6282 35.4403 56.7285 35.1905C56.8289 34.9407 56.8786 34.6735 56.8748 34.4043C56.8748 28.8192 52.3037 24.248 46.7186 24.248C46.6499 24.2446 46.581 24.2446 46.5123 24.248ZM79.2186 24.248C73.6335 24.248 69.0624 28.8192 69.0623 34.4043C69.0585 34.6735 69.1083 34.9407 69.2086 35.1905C69.309 35.4403 69.458 35.6676 69.647 35.8593C69.836 36.051 70.0612 36.2032 70.3095 36.3071C70.5579 36.411 70.8244 36.4645 71.0936 36.4645C71.3628 36.4645 71.6293 36.411 71.8776 36.3071C72.1259 36.2032 72.3512 36.051 72.5402 35.8593C72.7291 35.6676 72.8782 35.4403 72.9785 35.1905C73.0789 34.9407 73.1286 34.6735 73.1248 34.4043C73.1248 31.0145 75.829 28.3105 79.2186 28.3105C79.4877 28.3144 79.755 28.2646 80.0048 28.1643C80.2545 28.0639 80.4819 27.9149 80.6736 27.7259C80.8653 27.5369 81.0175 27.3117 81.1214 27.0633C81.2253 26.815 81.2787 26.5485 81.2787 26.2793C81.2787 26.0101 81.2253 25.7436 81.1214 25.4953C81.0175 25.2469 80.8653 25.0217 80.6736 24.8327C80.4819 24.6437 80.2545 24.4947 80.0048 24.3943C79.755 24.294 79.4877 24.2442 79.2186 24.248ZM31.6588 39.8871C31.3346 39.8842 31.0144 39.9589 30.725 40.1049C30.4356 40.251 30.1853 40.4641 29.995 40.7266C29.8048 40.9891 29.6801 41.2933 29.6313 41.6138C29.5826 41.9343 29.6112 42.2618 29.7148 42.569C30.1375 43.8371 30.7354 45.0156 31.4128 46.1475C29.0885 45.8334 26.7174 45.828 24.3748 46.2585C23.8557 46.3669 23.3994 46.6739 23.1034 47.1139C22.8074 47.5539 22.695 48.0922 22.7902 48.6139C22.8855 49.1357 23.1808 49.5995 23.6132 49.9066C24.0456 50.2136 24.5809 50.3396 25.1048 50.2576C29.3773 49.4723 33.7921 50.2277 37.5541 52.3999C37.5905 52.4222 37.6275 52.4434 37.6652 52.4634C37.6784 52.4688 37.6916 52.4741 37.7049 52.4792C37.7414 52.4989 37.7784 52.5174 37.816 52.5348C37.8318 52.5403 37.8477 52.5456 37.8636 52.5507C37.9183 52.5716 37.9739 52.5901 38.0302 52.6062C38.0408 52.6089 38.0514 52.6116 38.062 52.6141C38.1092 52.6264 38.1568 52.637 38.2048 52.6459C38.2885 52.6644 38.3733 52.6777 38.4587 52.6855C38.7111 52.7005 38.964 52.6682 39.2045 52.5903C39.2231 52.5853 39.2416 52.58 39.2601 52.5745C39.3698 52.536 39.476 52.4882 39.5775 52.4316C39.5934 52.4239 39.6093 52.416 39.6251 52.4078C39.7261 52.3475 39.8217 52.2785 39.9107 52.2015C39.9268 52.1886 39.9427 52.1753 39.9583 52.1619C39.9939 52.1287 40.0283 52.0943 40.0615 52.0587C40.0749 52.0457 40.0881 52.0325 40.1011 52.019C40.1777 51.9325 40.2467 51.8396 40.3074 51.7413C40.3182 51.7256 40.3288 51.7097 40.3392 51.6937C40.3645 51.6523 40.3883 51.6099 40.4106 51.5668C40.4187 51.551 40.4267 51.5351 40.4344 51.5192C40.4837 51.4118 40.5235 51.3002 40.5534 51.1859C40.5589 51.1701 40.5642 51.1542 40.5693 51.1383C40.5818 51.0885 40.5924 51.0382 40.601 50.9875C40.6039 50.9691 40.6066 50.9506 40.609 50.932C40.6243 50.8163 40.6296 50.6995 40.6248 50.5829C40.6251 50.5644 40.6251 50.5459 40.6248 50.5273C40.6214 50.4769 40.6161 50.4266 40.609 50.3766C40.6065 50.3607 40.6039 50.3448 40.601 50.329C40.5702 50.145 40.5141 49.9661 40.4344 49.7974C40.4267 49.7814 40.4187 49.7655 40.4106 49.7498C40.3885 49.7039 40.3647 49.6589 40.3392 49.6149C40.3314 49.6016 40.3235 49.5883 40.3154 49.5752C40.2879 49.5318 40.2588 49.4894 40.2281 49.4482C40.2177 49.4349 40.2071 49.4217 40.1964 49.4086C40.1661 49.3677 40.1344 49.328 40.1011 49.2895C40.0907 49.2762 40.0802 49.263 40.0694 49.2499C40.0337 49.2141 39.9966 49.1797 39.9583 49.1467C39.9452 49.136 39.932 49.1254 39.9187 49.115C39.8802 49.0818 39.8405 49.05 39.7996 49.0198C39.7865 49.009 39.7733 48.9985 39.76 48.988C39.7186 48.96 39.6763 48.9336 39.633 48.9087C36.7765 47.159 34.6303 44.4617 33.571 41.2836C33.4381 40.8802 33.1822 40.5286 32.8393 40.2781C32.4963 40.0276 32.0835 39.8909 31.6588 39.8871ZM94.2784 39.8871C93.8537 39.8909 93.4409 40.0276 93.0979 40.2781C92.7549 40.5286 92.499 40.8802 92.3662 41.2836C91.3069 44.4617 89.1607 47.159 86.3042 48.9087C86.2854 48.9216 86.2669 48.9348 86.2486 48.9484C86.2245 48.9611 86.2007 48.9743 86.1772 48.988C86.1638 48.9985 86.1506 49.009 86.1375 49.0198C86.0967 49.05 86.057 49.0818 86.0185 49.115C85.9942 49.1356 85.9704 49.1567 85.9471 49.1785C85.92 49.2016 85.8936 49.2254 85.8678 49.2499C85.857 49.263 85.8464 49.2762 85.836 49.2895C85.8028 49.328 85.771 49.3677 85.7408 49.4086C85.7131 49.4447 85.6866 49.4817 85.6615 49.5197C85.645 49.5457 85.6291 49.5722 85.6138 49.599C85.5917 49.6327 85.5705 49.6671 85.5504 49.7021C85.5393 49.7257 85.5287 49.7496 85.5186 49.7736C85.5105 49.7867 85.5026 49.7999 85.4948 49.8132C85.4172 49.9849 85.3638 50.1664 85.3361 50.3528C85.333 50.3792 85.3303 50.4056 85.3282 50.4321C85.3222 50.4637 85.3169 50.4955 85.3123 50.5273C85.3121 50.5459 85.3121 50.5644 85.3123 50.5829C85.3083 50.7103 85.3163 50.8378 85.3361 50.9637C85.3409 50.9903 85.3462 51.0168 85.352 51.0431C85.3565 51.075 85.3618 51.1067 85.3679 51.1383C85.373 51.1542 85.3783 51.1701 85.3837 51.1859C85.4169 51.3116 85.4621 51.4338 85.5186 51.5509C85.5315 51.5723 85.5447 51.5935 85.5583 51.6144C85.5709 51.6411 85.5842 51.6676 85.598 51.6937C85.6083 51.7097 85.6189 51.7256 85.6297 51.7413C85.6905 51.8396 85.7595 51.9325 85.836 52.019C85.8491 52.0325 85.8623 52.0457 85.8757 52.0587C85.9088 52.0943 85.9432 52.1287 85.9788 52.1619C85.9945 52.1753 86.0104 52.1886 86.0264 52.2015C86.1155 52.2785 86.2111 52.3475 86.3121 52.4078C86.3279 52.416 86.3437 52.4239 86.3597 52.4316C86.4809 52.4973 86.6085 52.5505 86.7406 52.5903C86.9786 52.6672 87.2287 52.6995 87.4785 52.6855C87.5639 52.6777 87.6487 52.6644 87.7324 52.6459C87.7803 52.637 87.828 52.6264 87.8752 52.6141C87.8938 52.6091 87.9123 52.6038 87.9307 52.5983C87.9789 52.5842 88.0266 52.5683 88.0736 52.5507C88.0895 52.5456 88.1054 52.5403 88.1212 52.5348C88.1669 52.5153 88.2119 52.4941 88.2561 52.4713C88.272 52.4636 88.2879 52.4557 88.3037 52.4475C88.3305 52.4322 88.3569 52.4164 88.383 52.3999C88.3933 52.3939 88.4044 52.39 88.4147 52.384C88.4201 52.3814 88.4253 52.3788 88.4306 52.3761C92.1825 50.2244 96.5775 49.4755 100.832 50.2576C101.098 50.313 101.372 50.3148 101.638 50.2627C101.905 50.2106 102.158 50.1057 102.383 49.9543C102.608 49.8028 102.8 49.6078 102.949 49.3808C103.098 49.1538 103.199 48.8993 103.248 48.6324C103.297 48.3655 103.292 48.0915 103.233 47.8266C103.174 47.5617 103.063 47.3113 102.906 47.0901C102.749 46.8689 102.549 46.6813 102.318 46.5385C102.087 46.3957 101.83 46.3005 101.562 46.2585C99.2197 45.828 96.8487 45.8334 94.5244 46.1475C95.2018 45.0156 95.7997 43.8371 96.2224 42.569C96.326 42.2618 96.3546 41.9343 96.3059 41.6138C96.2571 41.2933 96.1324 40.9891 95.9421 40.7266C95.7519 40.4641 95.5016 40.251 95.2122 40.1049C94.9227 39.9589 94.6026 39.8842 94.2784 39.8871ZM48.7816 47.5836C48.4294 47.5972 48.0869 47.7022 47.7876 47.8882C47.4883 48.0742 47.2425 48.3349 47.0744 48.6447C46.9063 48.9544 46.8217 49.3026 46.8289 49.6549C46.8361 50.0072 46.9348 50.3516 47.1153 50.6543C49.8783 55.4399 49.0868 61.4656 45.1793 65.3729C44.9843 65.5601 44.8287 65.7843 44.7215 66.0324C44.6142 66.2804 44.5576 66.5474 44.5549 66.8176C44.5521 67.0879 44.6033 67.356 44.7055 67.6062C44.8076 67.8564 44.9586 68.0837 45.1497 68.2748C45.3408 68.4659 45.5681 68.6169 45.8184 68.7191C46.0686 68.8212 46.3366 68.8724 46.6069 68.8697C46.8771 68.8669 47.1441 68.8103 47.3922 68.703C47.6402 68.5958 47.8644 68.4402 48.0516 68.2452C53.2454 63.0513 54.3109 54.9841 50.6383 48.623C50.4551 48.2951 50.1847 48.0243 49.8569 47.8408C49.5291 47.6573 49.1569 47.5683 48.7816 47.5836ZM76.9493 47.5836C76.6091 47.6045 76.2796 47.7107 75.9912 47.8923C75.7028 48.074 75.4647 48.3252 75.2989 48.623C71.6263 54.9841 72.6918 63.0513 77.8856 68.2452C78.0727 68.4402 78.2969 68.5958 78.545 68.703C78.7931 68.8103 79.0601 68.8669 79.3303 68.8697C79.6005 68.8724 79.8686 68.8212 80.1188 68.7191C80.369 68.6169 80.5963 68.4659 80.7874 68.2748C80.9785 68.0837 81.1296 67.8564 81.2317 67.6062C81.3339 67.356 81.3851 67.0879 81.3823 66.8176C81.3796 66.5474 81.3229 66.2804 81.2157 66.0324C81.1085 65.7843 80.9528 65.5601 80.7579 65.3729C76.8504 61.4656 76.0588 55.4399 78.8219 50.6543C79.0024 50.3516 79.1011 50.0072 79.1083 49.6549C79.1154 49.3026 79.0308 48.9544 78.8628 48.6447C78.6947 48.3349 78.4489 48.0742 78.1496 47.8882C77.8503 47.7022 77.5077 47.5972 77.1556 47.5836C77.0869 47.5801 77.018 47.5801 76.9493 47.5836ZM14.7423 66.4917C14.6734 66.4908 14.6046 66.4935 14.536 66.4996C14.2365 66.5235 13.9461 66.6135 13.6855 66.7631C13.425 66.9127 13.201 67.1182 13.0295 67.3649C12.8579 67.6115 12.7433 67.8931 12.6937 68.1894C12.6441 68.4857 12.6609 68.7893 12.7428 69.0784C13.481 71.8336 14.9312 74.3532 16.9481 76.3702C17.1352 76.5652 17.3594 76.7208 17.6075 76.828C17.8556 76.9353 18.1226 76.9919 18.3928 76.9947C18.663 76.9974 18.9311 76.9462 19.1813 76.8441C19.4315 76.7419 19.6588 76.5909 19.8499 76.3998C20.041 76.2087 20.192 75.9814 20.2942 75.7312C20.3963 75.4809 20.4476 75.2129 20.4448 74.9426C20.4421 74.6724 20.3854 74.4054 20.2782 74.1574C20.171 73.9093 20.0153 73.6851 19.8204 73.4979C18.3076 71.9851 17.2162 70.0976 16.6624 68.031C16.5549 67.5997 16.3088 67.2155 15.962 66.9375C15.6151 66.6594 15.1867 66.5028 14.7423 66.4917ZM111.195 66.4917C110.751 66.5028 110.322 66.6595 109.975 66.9375C109.628 67.2155 109.382 67.5997 109.275 68.031C108.721 70.0976 107.63 71.9851 106.117 73.4979C105.922 73.6851 105.766 73.9093 105.659 74.1574C105.552 74.4054 105.495 74.6724 105.492 74.9426C105.49 75.2129 105.541 75.481 105.643 75.7312C105.745 75.9814 105.896 76.2087 106.087 76.3998C106.278 76.5909 106.506 76.7419 106.756 76.8441C107.006 76.9462 107.274 76.9974 107.544 76.9947C107.815 76.9919 108.082 76.9353 108.33 76.828C108.578 76.7208 108.802 76.5652 108.989 76.3702C111.006 74.3532 112.456 71.8336 113.194 69.0784C113.276 68.7893 113.293 68.4857 113.243 68.1894C113.194 67.8931 113.079 67.6115 112.908 67.3649C112.736 67.1182 112.512 66.9127 112.252 66.7631C111.991 66.6135 111.701 66.5235 111.401 66.4996C111.333 66.4935 111.264 66.4908 111.195 66.4917ZM42.6719 85.1855C42.4871 85.1843 42.3029 85.2084 42.1245 85.257C42.1218 85.257 42.1192 85.257 42.1165 85.257C42.1006 85.2621 42.0847 85.2673 42.0689 85.2728C42.0207 85.2869 41.9731 85.3028 41.9261 85.3204C41.8246 85.3601 41.7264 85.4079 41.6325 85.4633C41.6272 85.4659 41.6219 85.4685 41.6166 85.4712C37.8546 87.6434 33.4398 88.3988 29.1673 87.6135C28.9042 87.5656 28.6342 87.57 28.3728 87.6264C28.1114 87.6828 27.8637 87.7901 27.6437 87.9422C27.1996 88.2495 26.8956 88.7207 26.7988 89.252C26.7509 89.5151 26.7553 89.7851 26.8117 90.0465C26.8681 90.3079 26.9754 90.5557 27.1276 90.7756C27.2797 90.9955 27.4737 91.1833 27.6984 91.3283C27.9231 91.4733 28.1742 91.5726 28.4373 91.6205C30.7799 92.051 33.151 92.0377 35.4753 91.7236C34.7979 92.8555 34.2 94.0419 33.7773 95.3101C33.6929 95.5633 33.6592 95.8306 33.6781 96.0968C33.697 96.3631 33.7682 96.623 33.8876 96.8617C34.0069 97.1004 34.1721 97.3133 34.3738 97.4881C34.5754 97.663 34.8095 97.7965 35.0627 97.8809C35.3159 97.9653 35.5832 97.999 35.8495 97.98C36.1157 97.9611 36.3756 97.8899 36.6143 97.7706C36.853 97.6512 37.0659 97.486 37.2408 97.2844C37.4156 97.0828 37.5491 96.8487 37.6335 96.5955C38.6867 93.4356 40.8159 90.7446 43.6479 88.9941C43.6586 88.9863 43.6691 88.9784 43.6796 88.9703C43.6847 88.9673 43.6905 88.9655 43.6955 88.9624C43.7388 88.9375 43.7811 88.9111 43.8225 88.8831C43.8358 88.8726 43.849 88.8621 43.8621 88.8513C43.903 88.8211 43.9427 88.7893 43.9812 88.7561C43.9945 88.7457 44.0077 88.7351 44.0208 88.7244C44.0591 88.6914 44.0962 88.657 44.1319 88.6212C44.1346 88.6186 44.1372 88.6159 44.1398 88.6133C44.4123 88.3254 44.5945 87.9641 44.6642 87.5739C44.7338 87.1837 44.6878 86.7816 44.5317 86.4173C44.3757 86.0529 44.1165 85.7422 43.786 85.5233C43.4556 85.3044 43.0683 85.187 42.6719 85.1855ZM83.1779 85.1855C82.789 85.2034 82.4133 85.3326 82.0957 85.5578C81.7781 85.783 81.532 86.0947 81.3865 86.4559C81.241 86.8171 81.2024 87.2124 81.2752 87.5949C81.3481 87.9774 81.5293 88.3309 81.7973 88.6133C81.8 88.6159 81.8026 88.6186 81.8053 88.6212C81.8183 88.632 81.8316 88.6425 81.8449 88.653C81.9166 88.7247 81.9935 88.791 82.075 88.8513C82.1337 88.8942 82.1946 88.934 82.2575 88.9703C85.1066 90.7203 87.2463 93.4229 88.3037 96.5955C88.3881 96.8487 88.5215 97.0828 88.6964 97.2844C88.8712 97.486 89.0841 97.6512 89.3228 97.7706C89.5616 97.8899 89.8215 97.9611 90.0877 97.98C90.3539 97.999 90.6213 97.9653 90.8745 97.8809C91.1277 97.7965 91.3618 97.663 91.5634 97.4881C91.765 97.3133 91.9302 97.1004 92.0496 96.8617C92.169 96.623 92.2401 96.3631 92.259 96.0968C92.278 95.8306 92.2443 95.5633 92.1599 95.3101C91.7372 94.0419 91.1393 92.8555 90.4619 91.7236C92.7862 92.0377 95.1572 92.051 97.4998 91.6205C98.0312 91.5237 98.5023 91.2198 98.8096 90.7756C99.1169 90.3314 99.2351 89.7834 99.1383 89.252C99.0415 88.7207 98.7376 88.2495 98.2934 87.9422C97.8493 87.635 97.3012 87.5167 96.7699 87.6135C92.4974 88.3988 88.0826 87.6434 84.3205 85.4712C84.3152 85.4685 84.3099 85.4659 84.3046 85.4633C84.2108 85.4079 84.1126 85.3601 84.0111 85.3204C83.9641 85.3028 83.9164 85.2869 83.8682 85.2728C83.8498 85.2673 83.8313 85.262 83.8127 85.257C83.8101 85.257 83.8074 85.257 83.8048 85.257C83.6775 85.2233 83.5473 85.202 83.416 85.1935C83.3368 85.1862 83.2574 85.1835 83.1779 85.1855ZM54.8118 97.3492C54.2745 97.3577 53.7624 97.5786 53.3876 97.9638C53.0129 98.349 52.806 98.8669 52.8123 99.4043C52.8123 102.794 50.1081 105.498 46.7186 105.498C46.4494 105.494 46.1822 105.544 45.9324 105.644C45.6826 105.745 45.4553 105.894 45.2636 106.083C45.0719 106.272 44.9197 106.497 44.8158 106.745C44.7119 106.994 44.6584 107.26 44.6584 107.529C44.6584 107.798 44.7119 108.065 44.8158 108.313C44.9197 108.562 45.0719 108.787 45.2636 108.976C45.4553 109.165 45.6826 109.314 45.9324 109.414C46.1822 109.515 46.4494 109.564 46.7186 109.561C52.3037 109.561 56.8748 104.989 56.8748 99.4043C56.878 99.1329 56.8268 98.8636 56.7241 98.6123C56.6215 98.361 56.4695 98.1328 56.2772 97.9412C56.0849 97.7497 55.8561 97.5986 55.6045 97.4969C55.3528 97.3952 55.0833 97.345 54.8118 97.3492ZM70.927 97.3492C70.4135 97.3915 69.9353 97.6273 69.5891 98.0088C69.2429 98.3903 69.0546 98.8892 69.0623 99.4043C69.0623 104.989 73.6335 109.561 79.2186 109.561C79.4877 109.564 79.755 109.515 80.0048 109.414C80.2545 109.314 80.4819 109.165 80.6736 108.976C80.8653 108.787 81.0175 108.562 81.1214 108.313C81.2253 108.065 81.2787 107.798 81.2787 107.529C81.2787 107.26 81.2253 106.994 81.1214 106.745C81.0175 106.497 80.8653 106.272 80.6736 106.083C80.4819 105.894 80.2545 105.745 80.0048 105.644C79.755 105.544 79.4877 105.494 79.2186 105.498C75.829 105.498 73.1248 102.794 73.1248 99.4043C73.1311 98.8669 72.9243 98.349 72.5495 97.9638C72.1748 97.5786 71.6627 97.3577 71.1253 97.3492C71.0592 97.346 70.993 97.346 70.927 97.3492Z" fill="url(#paint0_linear)"/>
<defs>
<linearGradient id="paint0_linear" x1="4.06639" y1="66.9053" x2="113.75" y2="66.9053" gradientUnits="userSpaceOnUse">
<stop stop-color="#000092"/>
<stop offset="1" stop-color="#6666FF"/>
</linearGradient>
</defs>
</svg>
