<svg id="SvgjsSvg1036" width="288" height="288" xmlns="http://www.w3.org/2000/svg" version="1.1" xmlns:xlink="http://www.w3.org/1999/xlink" xmlns:svgjs="http://svgjs.com/svgjs"><defs id="SvgjsDefs1037"></defs><g id="SvgjsG1038" transform="matrix(1,0,0,1,0,0)"><svg xmlns="http://www.w3.org/2000/svg" xmlns:xlink="http://www.w3.org/1999/xlink" width="288" height="288" viewBox="0 0 32 32"><defs><linearGradient id="a"><stop offset="0" stop-color="#000092" class="stopColor000092 svgShape"></stop><stop offset="1" stop-color="#6666ff" class="stopColorff00f3 svgShape"></stop></linearGradient><linearGradient id="b" x1="2" x2="27" y1="16" y2="16" gradientUnits="userSpaceOnUse" xlink:href="#a"></linearGradient></defs><path style="line-height:normal;text-indent:0;text-align:start;text-decoration-line:none;text-decoration-style:solid;text-decoration-color:#000;text-transform:none;block-progression:tb;isolation:auto;mix-blend-mode:normal" fill="url(#b)" d="m 15,2 c -0.276131,2.76e-5 -0.499972,0.2238691 -0.5,0.5 l 0,2.5 -10,0 C 4.3674005,5.0000255 4.2402403,5.052716 4.1464844,5.1464844 l -2,2 c -0.1951842,0.1952649 -0.1951842,0.5117663 0,0.7070312 l 2,2 C 4.2402403,9.9472837 4.3674005,9.9999745 4.5,10 l 10,0 0,17 -3,0 c -0.276131,2.8e-5 -0.499972,0.223869 -0.5,0.5 l 0,2 c 2.8e-5,0.276131 0.223869,0.499972 0.5,0.5 l 9,0 C 21,30 21,29.5 21,29.5 l 0,-2 c -2.8e-5,-0.276131 -0.223869,-0.499972 -0.5,-0.5 l -3,0 0,-12 10,0 c 0.1326,-2.5e-5 0.25976,-0.05272 0.353516,-0.146484 l 2,-2 c 0.195185,-0.195265 0.195185,-0.511767 0,-0.707032 l -2,-2 C 27.75976,10.052716 27.6326,10.000025 27.5,10 l -10,0 0,-7.5 C 17.499972,2.2238691 17.276131,2.0000276 17,2 Z m 0.5,1 1,0 0,7.417969 c -0.009,0.05431 -0.009,0.109748 0,0.164062 l 0,3.835938 c -0.009,0.05431 -0.009,0.109748 0,0.164062 L 16.5,27 l -1,0 0,-17.421875 c 0.0086,-0.053039 0.0086,-0.1071175 0,-0.1601562 l 0,-3.8398438 c 0.0086,-0.053039 0.0086,-0.1071175 0,-0.1601562 z M 4.7070312,6 14.5,6 l 0,3 -9.7929688,0 -1.5,-1.5 z M 17.5,11 l 9.792969,0 1.5,1.5 -1.5,1.5 L 17.5,14 Z m -5.5,17 8,0 0,1 -8,0 z" color="#000" font-family="sans-serif" font-weight="400" overflow="visible"></path></svg></g></svg>